<svg xmlns="http://www.w3.org/2000/svg" viewBox="0 0 270 99" fill="none"><g opacity="0.6"><path d="M130.547 81.1576C130.547 81.1576 12.5395 106.851 0.765094 86.7896C-4.72452 77.4364 21.1174 63.5374 21.1174 63.5374C21.1174 63.5374 3.92462 75.7844 11.7697 80.6014C26.3947 89.5814 107.117 69.1975 107.117 69.1975L130.547 81.1576Z" fill="#EBEBEB"></path><path d="M60.3113 95.525L77.9548 92.9422C80.889 92.4922 83.83 92.1086 86.7594 91.6381C89.695 91.2141 92.6237 90.7552 95.5524 90.2943C98.479 89.8272 101.409 89.3738 104.327 88.856C107.259 88.4094 110.16 87.8149 113.088 87.3361C118.915 86.2423 124.722 85.0656 130.547 83.8047C124.963 85.8868 119.213 87.5115 113.417 88.906C110.514 89.5751 107.599 90.2093 104.673 90.771C101.75 91.3497 98.8078 91.8203 95.8715 92.3237C92.9237 92.7477 89.9792 93.2018 87.0231 93.5613C85.5457 93.7456 84.067 93.9202 82.5869 94.0785C81.1081 94.2469 79.6273 94.4038 78.1438 94.5291C72.2165 95.0784 66.2714 95.4777 60.3113 95.525Z" fill="#EBEBEB"></path><path d="M15.774 71.457C15.5398 71.794 15.3418 72.1515 15.1747 72.5166C15.0001 72.8769 14.8562 73.2488 14.7658 73.6255C14.6617 73.9994 14.6309 74.3768 14.6261 74.7385C14.6624 75.0967 14.7124 75.4453 14.8795 75.7432C15.1624 76.3556 15.7062 76.8206 16.3439 77.1624C16.9713 77.5192 17.7041 77.7555 18.437 77.9596C19.9322 78.3226 21.5068 78.5206 23.093 78.6055C24.6752 78.7261 26.2813 78.7466 27.8854 78.735C29.4929 78.7397 31.1038 78.6945 32.7189 78.6288C34.3346 78.5856 35.951 78.4952 37.5736 78.4247C40.818 78.2856 44.0673 78.0761 47.357 78.0624C44.1872 78.9233 40.9728 79.5788 37.7236 80.0212C36.9133 80.15 36.0996 80.2548 35.2825 80.3301C34.4654 80.411 33.6517 80.5151 32.8305 80.5719C31.1915 80.6979 29.5443 80.761 27.8923 80.789C24.5944 80.7397 21.2328 80.6123 17.963 79.4856C17.1575 79.1658 16.3404 78.8432 15.6117 78.2857C14.8898 77.7583 14.2055 77.0206 13.9364 76.085C13.6617 75.1501 13.8501 74.1919 14.235 73.4282C14.6076 72.6488 15.1576 71.9995 15.774 71.457Z" fill="#EBEBEB"></path></g><path d="M148.611 86.789C147.72 85.7589 135.313 77.0967 134.382 76.4481L136.5 76.0837C136.5 76.0837 147.841 85.7185 148.611 86.789Z" fill="#FFC725"></path><path opacity="0.5" d="M148.611 86.789C147.72 85.7589 135.313 77.0967 134.382 76.4481L136.5 76.0837C136.5 76.0837 147.841 85.7185 148.611 86.789Z" fill="white"></path><path d="M148.652 86.867C148.652 86.8731 148.652 86.8786 148.652 86.8786C148.652 86.8903 148.646 86.9019 148.64 86.919C148.541 87.1389 147.691 87.33 146.742 87.4574C146.73 87.4574 146.719 87.4574 146.707 87.4628C145.544 87.6074 144.254 87.6539 144.045 87.5149C143.778 87.33 134.827 82.8513 129.347 80.1137C129.272 80.0787 129.203 80.0445 129.133 80.0096C129.11 79.9979 129.092 79.9863 129.086 79.9863H129.081V79.9808C128.814 79.8479 128.554 79.7205 128.305 79.5931C127.374 79.1301 126.599 78.7425 126.049 78.4706C125.488 78.1925 125.169 78.0308 125.169 78.0308L134.381 76.4514C134.908 76.8158 139.097 79.7383 142.801 82.4054C142.928 82.4924 143.055 82.5849 143.183 82.6773C143.53 82.9259 143.865 83.1691 144.201 83.4068C146.452 85.0444 148.287 86.4156 148.611 86.7916C148.622 86.8087 148.634 86.8266 148.639 86.8382C148.645 86.8492 148.652 86.8608 148.652 86.867Z" fill="#FFC725"></path><g opacity="0.1"><path d="M148.651 86.8672C148.651 86.8733 148.651 86.8788 148.651 86.8788C148.651 86.8904 148.646 86.9021 148.64 86.9192C148.541 87.1391 147.691 87.3302 146.742 87.4576C146.73 87.4576 146.719 87.4576 146.707 87.463C145.544 87.6076 144.253 87.6541 144.045 87.5151C143.773 87.3302 134.589 82.7351 129.133 80.0098C130.029 80.444 141.805 86.1089 144.201 83.4063C146.451 85.0439 148.286 86.4151 148.61 86.7911C148.622 86.8083 148.634 86.8261 148.639 86.8377C148.645 86.8494 148.651 86.861 148.651 86.8672Z" fill="black"></path></g><path d="M270 96.9757V96.9812C270 98.214 263.212 98.6133 262.286 98.3469C261.274 98.0571 187.391 68.9803 187.391 68.9803L214.576 58.2175C214.785 58.362 215.045 58.5477 215.358 58.7614C215.468 58.8367 215.583 58.9175 215.705 58.9983C220.716 62.4702 235.68 72.8453 248.752 81.9766C249.012 82.1561 249.267 82.3355 249.522 82.515C249.869 82.752 250.21 82.9951 250.552 83.2328C259.613 89.5635 267.471 95.0894 270 96.9757Z" fill="#FFC725"></path><path d="M270 96.9757C263.38 92.034 220.224 62.1291 214.577 58.2175L218.02 56.8518C218.02 56.8518 268.293 95.0894 269.809 96.6113C269.937 96.7442 270 96.8599 270 96.9757Z" fill="#FFC725"></path><path opacity="0.5" d="M270 96.9757C263.38 92.034 220.224 62.1291 214.577 58.2175L218.02 56.8518C218.02 56.8518 268.293 95.0894 269.809 96.6113C269.937 96.7442 270 96.8599 270 96.9757Z" fill="white"></path><g opacity="0.5"><path opacity="0.1" d="M270 96.9757V96.9812C270 98.214 263.212 98.6133 262.286 98.3469C261.274 98.0571 187.391 68.9803 187.391 68.9803L214.576 58.2175C214.576 58.2175 207.853 65.9078 223.806 77.7356C234.679 85.7964 246.252 87.4683 250.551 83.2328C259.613 89.5635 267.471 95.0894 270 96.9757Z" fill="black"></path></g><path d="M208.387 78.5191C206.287 79.5389 204.003 80.3403 203.838 78.2301C203.77 77.365 204.44 76.4397 207.818 74.8137C208.611 74.4322 210.546 73.585 211.115 75.3397C211.663 77.0294 209.177 78.1342 208.387 78.5191Z" fill="#FFC725"></path><path opacity="0.1" d="M208.387 78.5191C206.287 79.5389 204.003 80.3403 203.838 78.2301C203.77 77.365 204.44 76.4397 207.818 74.8137C208.611 74.4322 210.546 73.585 211.115 75.3397C211.663 77.0294 209.177 78.1342 208.387 78.5191Z" fill="black"></path><path d="M225.529 85.5355C223.429 86.5553 221.145 87.3567 220.98 85.2464C220.913 84.3807 221.583 83.4561 224.961 81.8301C225.754 81.4486 227.689 80.6013 228.259 82.3561C228.807 84.0458 226.32 85.1512 225.529 85.5355Z" fill="#FFC725"></path><path opacity="0.1" d="M225.529 85.5355C223.429 86.5553 221.145 87.3567 220.98 85.2464C220.913 84.3807 221.583 83.4561 224.961 81.8301C225.754 81.4486 227.689 80.6013 228.259 82.3561C228.807 84.0458 226.32 85.1512 225.529 85.5355Z" fill="black"></path><path d="M242.672 92.5511C240.572 93.5709 238.288 94.3723 238.123 92.2621C238.055 91.3963 238.725 90.4717 242.104 88.8457C242.896 88.4642 244.831 87.6169 245.401 89.3717C245.949 91.0621 243.463 92.1668 242.672 92.5511Z" fill="#FFC725"></path><path opacity="0.1" d="M242.672 92.5511C240.572 93.5709 238.288 94.3723 238.123 92.2621C238.055 91.3963 238.725 90.4717 242.104 88.8457C242.896 88.4642 244.831 87.6169 245.401 89.3717C245.949 91.0621 243.463 92.1668 242.672 92.5511Z" fill="black"></path><path d="M237.069 74.1185C235.003 77.7931 230.316 79.1177 227.347 80.304C219.466 83.4519 213.749 85.2224 210.931 78.065C210.567 77.139 210.364 76.2767 210.3 75.4726C209.837 70.0741 215.428 67.3769 218.269 65.8844C218.274 65.879 218.274 65.879 218.274 65.879C221.7 64.0735 224.125 62.905 225.929 62.1468C228.875 60.9023 230.188 60.7462 231.542 60.7003C233.133 60.6482 236.733 61.0475 237.913 67.6502C238.4 70.3981 237.995 72.4871 237.069 74.1185Z" fill="#FFC725"></path><path d="M237.163 68.9857C237.163 73.0076 234.648 76.2671 231.545 76.2671C228.442 76.2671 225.927 73.0069 225.927 68.9857C225.927 64.9646 228.442 61.7043 231.545 61.7043C234.648 61.7043 237.163 64.9646 237.163 68.9857Z" fill="#263238"></path><path d="M236.509 68.9857C236.509 72.539 234.287 75.4191 231.545 75.4191C228.804 75.4191 226.582 72.5384 226.582 68.9857C226.582 65.433 228.804 62.5522 231.545 62.5522C234.287 62.5522 236.509 65.433 236.509 68.9857Z" fill="#455A64"></path><path d="M119.453 67.0597L118.15 67.5344L115.222 68.5994C112.596 67.4591 108.985 65.9029 105.084 64.2249C95.2646 60.0064 83.645 55.0531 81.406 54.2949C81.4868 54.3182 81.5854 54.347 81.6896 54.3819C81.7649 54.4052 81.8512 54.434 81.9443 54.4627C82.0485 54.4977 82.1642 54.5319 82.2854 54.5723C82.3491 54.5956 82.4128 54.6127 82.482 54.636C82.7135 54.7113 82.9738 54.7922 83.2573 54.8846C83.506 54.9655 83.7662 55.0524 84.0498 55.1449C84.7094 55.3586 85.4559 55.6079 86.2778 55.8798C86.5264 55.9668 86.7812 56.0476 87.0415 56.1346C87.273 56.21 87.51 56.2908 87.7531 56.3716C87.886 56.4182 88.0134 56.4586 88.1463 56.499C88.5394 56.6319 88.9387 56.7654 89.3558 56.9038C89.6216 56.9962 89.888 57.0832 90.1599 57.1757C93.3017 58.2291 96.9536 59.4558 100.587 60.6825L101.577 61.0126C102.884 61.4578 104.193 61.8982 105.46 62.3263C107.867 63.142 110.158 63.9119 112.161 64.5885C112.485 64.6988 112.797 64.8084 113.104 64.9125C114.186 65.2769 115.17 65.607 116.02 65.8961L116.032 65.9022C116.292 65.9885 116.541 66.0755 116.779 66.157C116.9 66.1974 117.016 66.2378 117.126 66.2728C117.184 66.2961 117.242 66.3132 117.299 66.3303C118.659 66.7933 119.453 67.0597 119.453 67.0597Z" fill="#FFC725"></path><path opacity="0.5" d="M119.453 67.0597L118.15 67.5344L115.222 68.5994C112.596 67.4591 108.985 65.9029 105.084 64.2249C95.2646 60.0064 83.645 55.0531 81.406 54.2949C81.4868 54.3182 81.5854 54.347 81.6896 54.3819C81.7649 54.4052 81.8512 54.434 81.9443 54.4627C82.0485 54.4977 82.1642 54.5319 82.2854 54.5723C82.3491 54.5956 82.4128 54.6127 82.482 54.636C82.7135 54.7113 82.9738 54.7922 83.2573 54.8846C83.506 54.9655 83.7662 55.0524 84.0498 55.1449C84.7094 55.3586 85.4559 55.6079 86.2778 55.8798C86.5264 55.9668 86.7812 56.0476 87.0415 56.1346C87.273 56.21 87.51 56.2908 87.7531 56.3716C87.886 56.4182 88.0134 56.4586 88.1463 56.499C88.5394 56.6319 88.9387 56.7654 89.3558 56.9038C89.6216 56.9962 89.888 57.0832 90.1599 57.1757C93.3017 58.2291 96.9536 59.4558 100.587 60.6825L101.577 61.0126C102.884 61.4578 104.193 61.8982 105.46 62.3263C107.867 63.142 110.158 63.9119 112.161 64.5885C112.485 64.6988 112.797 64.8084 113.104 64.9125C114.186 65.2769 115.17 65.607 116.02 65.8961L116.032 65.9022C116.292 65.9885 116.541 66.0755 116.779 66.157C116.9 66.1974 117.016 66.2378 117.126 66.2728C117.184 66.2961 117.242 66.3132 117.299 66.3303C118.659 66.7933 119.453 67.0597 119.453 67.0597Z" fill="white"></path><path d="M115.223 68.5988L107.37 71.457C107.37 71.457 89.837 63.3208 79.381 58.223C79.3057 58.188 79.2653 58.1709 79.2653 58.1709C79.2187 58.1476 79.1728 58.1243 79.1263 58.1017C78.0324 57.5696 77.0201 57.0716 76.1174 56.6264C73.4154 55.2724 71.7024 54.3525 71.7661 54.2251C72.0552 53.6464 78.5653 53.5018 81.1694 54.2251C81.1927 54.2306 81.2098 54.2368 81.2392 54.2422C81.2858 54.2539 81.3433 54.271 81.407 54.2943C83.5714 55.0292 94.4965 59.6757 104.09 63.7955C104.165 63.8297 104.235 63.8592 104.31 63.8879C104.57 64.0037 104.831 64.1133 105.085 64.2236C108.985 65.9023 112.595 67.4584 115.223 68.5988Z" fill="#FFC725"></path><g opacity="0.1"><path d="M115.223 68.5987L107.37 71.4569C107.37 71.4569 89.8368 63.3207 79.3809 58.2229C81.111 58.9578 98.8538 66.7741 103.23 65.6892C104.263 65.433 104.854 64.8372 105.085 64.2235C108.984 65.9022 112.595 67.4583 115.223 68.5987Z" fill="black"></path></g><path d="M135.417 57.4073L116.368 66.5674C116.368 66.5674 116.565 50.2383 116.709 38.4912C116.715 38.0865 116.721 37.6872 116.727 37.2933C116.733 36.9694 116.733 36.6509 116.738 36.3385C116.79 32.3167 116.837 29.0764 116.854 27.6065C116.924 22.8792 117.433 21.9183 118.683 22.6881C119.938 23.458 125.499 28.2956 127.172 30.4537C128.543 32.2243 131.581 42.9466 133.56 50.3191C133.577 50.3828 133.594 50.4403 133.606 50.504C133.722 50.9321 133.838 51.3492 133.942 51.7478C134.821 55.0642 135.417 57.4073 135.417 57.4073Z" fill="#FFC725"></path><g opacity="0.1"><path d="M135.417 57.4073L116.368 66.5674C116.368 66.5674 116.565 50.2382 116.709 38.4912C119.516 44.7466 125.054 53.293 133.942 51.7478C134.821 55.0642 135.417 57.4073 135.417 57.4073Z" fill="black"></path></g><path d="M103.061 76.557C101.1 71.6551 109.426 67.2017 118.878 62.9586C128.329 58.7149 221.492 17.6308 234.994 13.9658C248.496 10.3008 264.221 15.3199 266.88 23.0314C270.871 34.6044 254.067 44.3008 193.717 69.3236C185.809 72.6023 150.438 81.0946 130.547 81.1583C109.281 81.2268 104.025 78.9679 103.061 76.557Z" fill="#FFC725"></path><path opacity="0.5" d="M103.061 76.557C101.1 71.6551 109.426 67.2017 118.878 62.9586C128.329 58.7149 221.492 17.6308 234.994 13.9658C248.496 10.3008 264.221 15.3199 266.88 23.0314C270.871 34.6044 254.067 44.3008 193.717 69.3236C185.809 72.6023 150.438 81.0946 130.547 81.1583C109.281 81.2268 104.025 78.9679 103.061 76.557Z" fill="white"></path><path opacity="0.1" d="M193.718 69.3247C185.808 72.6054 150.435 81.0943 130.547 81.158C109.281 81.2279 104.027 78.971 103.061 76.5581C102.037 73.9944 103.825 71.5527 107.118 69.1973C107.095 69.6774 107.175 70.1575 107.373 70.6438C108.252 72.8369 113.02 74.8855 132.313 74.8218C150.361 74.7643 176.319 60.1481 183.494 57.1742C238.252 34.4678 259.639 32.5802 256.017 22.0777C254.443 17.5065 247.806 13.9764 239.971 13.01C252.111 11.5573 264.546 16.2504 266.878 23.0324C270.87 34.6055 254.066 44.3032 193.718 69.3247Z" fill="black"></path><path d="M132.594 60.3889L134.735 59.4629V62.6108L132.594 63.5368V60.3889Z" fill="#455A64"></path><path d="M136.5 58.6992L138.785 57.7095V60.8574L136.5 61.8471V58.6992Z" fill="#455A64"></path><path d="M140.551 56.9458L142.836 55.9568V59.104L140.551 60.0937V56.9458Z" fill="#455A64"></path><path d="M144.601 55.1924L146.886 54.2034V57.3506L144.601 58.3403V55.1924Z" fill="#455A64"></path><path d="M148.652 53.439L150.937 52.45V55.5978L148.652 56.5869V53.439Z" fill="#455A64"></path><path d="M152.702 51.6856L154.988 50.6965V53.8444L152.702 54.8341V51.6856Z" fill="#455A64"></path><path d="M156.753 49.9321L159.038 48.9431V52.091L156.753 53.0807V49.9321Z" fill="#455A64"></path><path d="M160.803 48.1794L163.089 47.1897V50.3376L160.803 51.3273V48.1794Z" fill="#455A64"></path><path d="M164.854 46.426L167.14 45.4363V48.5841L164.854 49.5739V46.426Z" fill="#455A64"></path><path d="M168.905 44.6726L171.19 43.6829V46.8307L168.905 47.8205V44.6726Z" fill="#455A64"></path><path d="M172.956 42.9194L175.241 41.9297V45.0776L172.956 46.0673V42.9194Z" fill="#455A64"></path><path d="M177.006 41.1658L179.291 40.1768V43.324L177.006 44.3137V41.1658Z" fill="#455A64"></path><path d="M181.056 39.4126L183.342 38.4236V41.5708L181.056 42.5605V39.4126Z" fill="#455A64"></path><path d="M185.107 37.6592L187.393 36.6702V39.8181L185.107 40.8071V37.6592Z" fill="#455A64"></path><path d="M189.157 35.9058L191.443 34.9167V38.0646L189.157 39.0537V35.9058Z" fill="#455A64"></path><path d="M193.208 34.153L195.494 33.1633V36.3112L193.208 37.3009V34.153Z" fill="#455A64"></path><path d="M197.258 32.3996L199.544 31.4099V34.5578L197.258 35.5475V32.3996Z" fill="#455A64"></path><path d="M201.309 30.6462L203.594 29.6565V32.8044L201.309 33.7941V30.6462Z" fill="#455A64"></path><path d="M205.36 28.8928L207.645 27.9031V31.051L205.36 32.0407V28.8928Z" fill="#455A64"></path><path d="M209.41 27.1394L211.695 26.1497V29.2975L209.41 30.2873V27.1394Z" fill="#455A64"></path><path d="M213.461 25.3862L215.747 24.3965V27.5444L213.461 28.5341V25.3862Z" fill="#455A64"></path><path d="M219.797 22.6428V25.7907L217.511 26.7804V23.6325L219.797 22.6428Z" fill="#455A64"></path><path d="M223.848 20.8904V24.0376L221.562 25.0273V21.8794L223.848 20.8904Z" fill="#455A64"></path><path d="M227.898 19.137V22.2849L225.613 23.2739V20.126L227.898 19.137Z" fill="#455A64"></path><path d="M231.949 17.3835V20.5314L229.663 21.5204V18.3726L231.949 17.3835Z" fill="#455A64"></path><path d="M242.537 16.0959C243.787 15.1007 245.269 14.5049 246.784 14.1172V16.2117C245.419 16.1596 244.024 16.1247 242.537 16.0959Z" fill="#455A64"></path><path d="M251.755 13.6192V16.5123C250.69 16.4137 249.626 16.35 248.549 16.2979V13.7692C249.608 13.6192 250.684 13.5672 251.755 13.6192Z" fill="#455A64"></path><path d="M261.945 17.7048C261.048 17.6815 260.227 17.5254 259.399 17.4267C258.567 17.3459 257.779 17.1836 256.975 17.1082C255.812 16.9288 254.66 16.8014 253.52 16.6918V13.8042C254.915 14.0069 256.286 14.3535 257.571 14.9097C258.386 15.2165 259.145 15.6562 259.891 16.0959C260.262 16.3042 260.609 16.5822 260.956 16.8541C261.297 17.1261 261.633 17.398 261.945 17.7048Z" fill="#455A64"></path><path d="M189.157 43.3535L162.31 56.2717C162.31 56.2717 119.637 33.3947 89.015 16.6779C88.9801 16.6608 88.9575 16.6492 88.9451 16.643L88.9335 16.6375C72.5873 7.70827 60.1115 0.776216 60.3142 0.509783C60.8293 -0.184724 69.0517 -0.0977467 72.3037 0.341971C72.6914 0.388545 73.0098 0.446085 73.2352 0.509783C74.6126 0.885803 122.895 18.7717 156.706 31.3112C175.067 38.1227 189.157 43.3535 189.157 43.3535Z" fill="#FFC725"></path><g opacity="0.1"><path d="M189.156 43.3535L162.31 56.2717C162.31 56.2717 119.636 33.3948 89.0144 16.678C91.4102 17.8875 146.307 45.5527 153.476 41.398C156.184 39.8296 156.89 35.7851 156.705 31.3119C175.066 38.1228 189.156 43.3535 189.156 43.3535Z" fill="black"></path></g><path d="M193.076 41.5769L185.103 45.4131C164.706 36.866 79.8661 3.32213 72.7608 0.509853C72.68 0.474922 72.6046 0.446156 72.5409 0.422869C72.4711 0.399582 72.4135 0.376295 72.3676 0.365336C72.3389 0.353693 72.3211 0.348205 72.304 0.342041C72.6916 0.388615 73.0101 0.446156 73.2354 0.509853C75.3587 1.08861 193.076 41.5769 193.076 41.5769Z" fill="#FFC725"></path><path opacity="0.5" d="M193.076 41.5769L185.103 45.4131C164.706 36.866 79.8661 3.32213 72.7608 0.509853C72.68 0.474922 72.6046 0.446156 72.5409 0.422869C72.4711 0.399582 72.4135 0.376295 72.3676 0.365336C72.3389 0.353693 72.3211 0.348205 72.304 0.342041C72.6916 0.388615 73.0101 0.446156 73.2354 0.509853C75.3587 1.08861 193.076 41.5769 193.076 41.5769Z" fill="white"></path><path d="M135.578 42.1988C132.952 43.4734 130.098 44.4748 129.892 41.8378C129.808 40.7563 130.645 39.6002 134.868 37.5681C135.858 37.0914 138.277 36.0318 138.988 38.2256C139.673 40.3372 136.566 41.7186 135.578 42.1988Z" fill="#FFC725"></path><path opacity="0.1" d="M135.578 42.1988C132.952 43.4734 130.098 44.4748 129.892 41.8378C129.808 40.7563 130.645 39.6002 134.868 37.5681C135.858 37.0914 138.277 36.0318 138.988 38.2256C139.673 40.3372 136.566 41.7186 135.578 42.1988Z" fill="black"></path><path d="M112.86 30.7222C110.234 31.9975 107.38 32.9982 107.174 30.3605C107.09 29.279 107.928 28.1229 112.15 26.0907C113.141 25.614 115.559 24.5545 116.271 26.7483C116.956 28.8606 113.849 30.2421 112.86 30.7222Z" fill="#FFC725"></path><path opacity="0.1" d="M112.86 30.7222C110.234 31.9975 107.38 32.9982 107.174 30.3605C107.09 29.279 107.928 28.1229 112.15 26.0907C113.141 25.614 115.559 24.5545 116.271 26.7483C116.956 28.8606 113.849 30.2421 112.86 30.7222Z" fill="black"></path><path d="M90.0668 19.1081C87.6217 20.2957 84.9621 21.2279 84.7703 18.7711C84.6916 17.7636 85.4724 16.6869 89.4059 14.7938C90.3285 14.3493 92.5818 13.363 93.2448 15.4068C93.8825 17.3739 90.9873 18.6608 90.0668 19.1081Z" fill="#FFC725"></path><path opacity="0.1" d="M90.0668 19.1081C87.6217 20.2957 84.9621 21.2279 84.7703 18.7711C84.6916 17.7636 85.4724 16.6869 89.4059 14.7938C90.3285 14.3493 92.5818 13.363 93.2448 15.4068C93.8825 17.3739 90.9873 18.6608 90.0668 19.1081Z" fill="black"></path><path d="M169.473 39.6001C167.408 43.2747 162.721 44.6 159.752 45.7856C151.871 48.9335 146.154 50.704 143.336 43.5459C142.972 42.6199 142.769 41.7583 142.705 40.9535C142.242 35.5543 147.832 32.8578 150.673 31.3654C150.678 31.3592 150.678 31.3592 150.678 31.3592C154.104 29.5537 156.529 28.3846 158.334 27.6271C161.279 26.3833 162.593 26.2264 163.947 26.1805C165.538 26.1285 169.137 26.5278 170.318 33.1304C170.805 35.8796 170.399 37.9686 169.473 39.6001Z" fill="#FFC725"></path><path d="M163.95 41.7488C167.052 41.7488 169.567 38.4888 169.567 34.4674C169.567 30.446 167.052 27.186 163.95 27.186C160.847 27.186 158.332 30.446 158.332 34.4674C158.332 38.4888 160.847 41.7488 163.95 41.7488Z" fill="#263238"></path><path d="M168.914 34.4674C168.914 38.0207 166.691 40.9008 163.95 40.9008C161.209 40.9008 158.986 38.02 158.986 34.4674C158.986 30.9147 161.209 28.0339 163.95 28.0339C166.691 28.0339 168.914 30.914 168.914 34.4674Z" fill="#455A64"></path><path d="M84.0505 55.145C83.7731 55.0526 83.5067 54.9656 83.2581 54.8848C83.5067 54.9656 83.7669 55.0526 84.0505 55.145Z" fill="#FFC725"></path></svg>