<svg xmlns="http://www.w3.org/2000/svg" viewBox="0 0 373 245" fill="none"><path d="M144.852 6.92847C141.841 9.48201 139.224 12.901 138.779 16.9186C138.744 17.3121 138.166 17.3937 138.02 17.0334C136.915 14.5131 134.266 12.0237 131.326 13.0609C130.894 13.1298 130.359 13.4339 129.951 13.5907L128.66 14.3571C130.171 12.9754 132.199 11.8843 134.305 12.4837C136.396 13.0578 137.839 14.8417 138.748 16.7254L137.991 16.8402C138.462 12.6603 141.346 9.07424 144.852 6.92847Z" fill="#1C1716"></path><path d="M98.9746 4.56641C101.045 3.86013 105.136 2.53624 105.919 5.56804L105.167 5.45323C105.49 4.87284 105.849 4.3653 106.247 3.86647C107.411 2.41352 109.015 1.11814 110.926 0.958984C110.319 1.08567 109.745 1.30896 109.224 1.62409C107.703 2.59721 106.605 4.16497 105.885 5.78816C105.737 6.1603 105.158 6.06925 105.134 5.67335C104.763 3.25916 100.659 4.18635 98.9746 4.56641Z" fill="#1C1716"></path><path d="M157.903 17.175C155.988 18.2163 152.699 19.552 152.899 22.1C152.963 22.45 152.51 22.6923 152.254 22.454C151.069 21.4713 149.529 20.7326 147.951 20.8039C147.41 20.7951 146.894 20.9741 146.36 21.1388C148.315 19.708 151.031 20.4024 152.775 21.8752L152.132 22.2378C151.775 19.1435 155.44 17.7056 157.903 17.175Z" fill="#1C1716"></path><path d="M183.287 219.5C183.287 219.5 178.82 222.534 179.375 223.545C179.931 224.557 183.919 232.779 186.141 234.058C188.363 235.337 195.928 234.993 196.693 234.311C197.458 233.63 196.135 232.764 193.254 232.129C189.93 231.396 190.56 227.594 190.56 227.594L183.287 219.5Z" fill="#C98C5F"></path><path d="M279.141 127.436C279.141 127.436 276.585 132.277 277.926 133.823C277.926 133.823 260.78 137.241 252.79 132.473C252.79 132.473 252.114 125.16 259.572 123.179L279.141 127.436Z" fill="#C98C5F"></path><path d="M246.6 100.414C246.6 100.414 259.83 121.792 261.891 123.854C261.891 123.854 257.343 133.419 252.79 132.474L239.985 115.177C239.985 115.177 238.868 104.366 246.6 100.414Z" fill="#C98C5F"></path><path d="M283.47 69.2649C282.977 72.5363 281.512 88.3418 281.54 92.0368C281.569 95.7317 282.308 194.182 282.009 197.533C281.71 200.883 280.918 235.934 280.918 235.934C280.918 235.934 279.88 236.707 279.316 235.934C279.316 235.934 280.268 200.11 280.496 196.76C280.725 193.41 279.95 176.915 280.161 172.791C280.373 168.668 281.041 163.378 280.918 158.162C280.795 152.947 279.809 110.526 280.091 101.97C280.373 93.4122 282.315 61.039 282.505 57.1228C282.696 53.2067 283.963 65.9935 283.47 69.2649Z" fill="#E3AA24"></path><path d="M282.006 123.889C283.114 123.591 284.181 124.474 284.099 125.618C283.859 128.972 283.256 134.863 281.96 135.295C280.142 135.902 277.413 135.598 277.111 134.235C276.808 132.87 277.566 126.11 277.717 125.474C277.808 125.09 280.155 124.388 282.006 123.889Z" fill="#C98C5F"></path><path d="M282.115 126.856L277.927 127.436" stroke="#191919" stroke-width="0.5" stroke-miterlimit="10" stroke-linecap="round"></path><path d="M281.6 129.712L277.2 130.094" stroke="#191919" stroke-width="0.5" stroke-miterlimit="10" stroke-linecap="round"></path><path d="M281.084 132.54H277.2" stroke="#191919" stroke-width="0.5" stroke-miterlimit="10" stroke-linecap="round"></path><path d="M278.134 125.84C278.134 125.84 280.171 128.247 279.34 129.352C278.509 130.457 278.107 130.897 277.017 129.589C275.927 128.28 274.236 126.388 274.588 125.781C274.941 125.174 276.169 123.15 278.134 125.84Z" fill="#C98C5F"></path><path d="M208.605 169.132C208.605 169.132 206.051 189.564 203.214 192.118C200.377 194.672 181.648 220.211 181.648 220.211C181.648 220.211 188.459 230.71 191.863 230.143L222.227 194.955L233.293 169.132C233.293 169.132 246.347 195.261 246.631 199.649C246.915 204.036 251.739 232.129 251.739 232.129L268.481 229.008C268.481 229.008 263.09 185.024 262.238 183.889C261.387 182.754 249.752 158.918 249.752 158.918L208.605 169.132Z" fill="#422F2A"></path><path d="M236.841 90.5992C236.841 90.5992 230.03 93.5789 227.689 99.3255C225.348 105.072 203.214 170.835 203.214 170.835C203.214 170.835 219.388 178.213 224.212 177.646L229.036 164.308L231.59 177.676C231.59 177.676 249.468 177.645 256.846 174.808C256.846 174.808 258.548 127.702 251.17 100.177C251.17 100.177 246.347 86.9811 236.841 90.5992Z" fill="#4A6B3E"></path><path d="M245.543 67.5385C250.827 66.6265 256.08 69.3138 258.687 73.9989C259.209 74.9361 259.57 75.5844 259.381 76.3799C258.85 78.6199 261.651 90.3265 259.371 90.9294C257.09 91.5323 245.793 91.884 241.604 85.499C238.228 80.3547 235.701 69.237 245.543 67.5385Z" fill="#C98C5F"></path><path d="M251.664 88.4228L248.719 97.8357C248.719 97.8357 241.399 94.819 239.145 90.4932L242.985 82.2185L251.664 88.4228Z" fill="#C98C5F"></path><path d="M250.498 69.1881C250.498 69.1881 250.089 72.7721 248.067 73.5928L248.323 81.0992C248.323 81.0992 242.529 80.2283 241.605 85.4982C241.605 85.4982 236.471 80.3141 237.344 73.2418C237.344 73.2418 242.771 68.1958 250.498 69.1881Z" fill="#542E1C"></path><path d="M242.353 80.2652C242.181 82.1305 243.463 83.7731 245.217 83.9343C246.971 84.0955 248.532 82.7138 248.703 80.8486C248.875 78.9833 247.592 77.3406 245.839 77.1794C244.085 77.0189 242.524 78.3999 242.353 80.2652Z" fill="#C98C5F"></path><path d="M244.748 79.0295C244.748 79.0295 246.119 79.5048 246.329 80.9213C246.329 80.9213 244.358 80.7985 244.998 81.8473" stroke="#191919" stroke-width="0.5" stroke-miterlimit="10" stroke-linecap="round"></path><path d="M259.325 77.6826C259.325 77.6826 259.495 78.8808 260.451 80.1627C261.407 81.4446 261.431 82.7683 259.107 83.4968L259.325 77.6826Z" fill="#C98C5F"></path><path d="M258.945 84.4062C258.945 84.4062 257.062 85.4752 255.477 83.7698L258.945 84.4062Z" fill="#191919"></path><path d="M239.145 82.0209C239.145 82.0209 246.839 73.5724 257.926 72.795L257.21 68.4274C257.21 65.3005 252.473 65.9341 252.473 65.9341C252.473 65.9341 239.949 63.0898 236.843 72.9123C236.843 72.9123 232.599 77.5758 239.145 82.0209Z" fill="#EBE5D8"></path><path d="M236.844 72.9124C236.844 72.9124 243.411 67.3725 257.21 68.4276C257.21 68.4276 242.413 69.2587 238.603 80.9199" stroke="#655F51" stroke-width="0.5" stroke-miterlimit="10" stroke-linecap="round" stroke-linejoin="round"></path><path d="M252.473 65.9341C252.473 65.9341 249.925 67.38 249.44 68.5265" stroke="#655F51" stroke-width="0.5" stroke-miterlimit="10" stroke-linecap="round" stroke-linejoin="round"></path><path d="M239.929 116.477C239.929 116.477 229.958 109.755 226.258 111.276L222.396 133.775C222.396 133.775 227.575 145.467 232.085 139.373L239.929 116.477Z" fill="#C98C5F"></path><path d="M239.769 157.677C239.769 157.677 235.88 159.068 235.083 159.856C235.083 159.856 221.905 141.345 222.396 133.775C222.396 133.775 226.849 125.254 232.98 133.685L239.769 157.677Z" fill="#C98C5F"></path><path d="M253.944 231.718C253.944 231.718 253.551 233.591 254.565 234.141C255.579 234.691 265.92 233.55 268.48 233.424C271.041 233.297 278.468 233.191 278.743 232.203C279.018 231.216 279.727 231.324 273.325 230.67C269.938 230.323 268.48 229.007 268.48 229.007L253.944 231.718Z" fill="#C98C5F"></path><path d="M244.716 165.143C244.716 165.143 245.315 170.512 245.64 171.407C245.965 172.303 244.192 171.891 243.704 170.995C243.216 170.099 242.907 166.285 242.83 166.286C242.752 166.289 244.716 165.143 244.716 165.143Z" fill="#C98C5F"></path><path d="M243.568 163.595C243.568 163.595 246.856 167.882 247.597 168.48C248.338 169.079 246.608 169.643 245.727 169.128C244.846 168.613 242.61 165.507 242.544 165.549C242.479 165.592 243.568 163.595 243.568 163.595Z" fill="#C98C5F"></path><path d="M239.233 155.688C239.233 155.688 243.495 162.334 244.708 164.786C245.484 166.354 243.936 169.658 243.535 171.423C243.133 173.189 241.135 171.673 241.376 169.827C241.617 167.98 241.574 166.682 241.574 166.682L239.874 164.381C238.924 164.128 239.849 164.518 237.157 163.451C236.038 163.007 233.484 160.392 233.906 158.323L239.233 155.688Z" fill="#C98C5F"></path><path d="M242.662 162.824C242.662 162.824 244.005 165.005 244.408 166.049C244.811 167.093 244.335 169.273 244.335 169.273" stroke="#191919" stroke-width="0.5" stroke-miterlimit="10" stroke-linecap="round"></path><path d="M179.327 222.855C179.327 222.855 186.728 233.43 187.818 233.621C188.908 233.81 188.35 231.725 191.813 231.865C195.277 232.004 197.659 233.383 197.415 234.428C197.172 235.473 187.577 234.794 186.912 234.92C186.246 235.046 178.594 223.83 178.642 223.544C178.69 223.259 179.327 222.855 179.327 222.855Z" fill="#422F2A"></path><path d="M253.869 232.86C253.869 232.86 271.227 231.641 271.797 231.648C272.367 231.656 272.106 230.317 273.579 230.412C275.052 230.507 279.433 231.104 279.316 231.648C279.199 232.193 278.237 233.05 278.07 233.05C277.904 233.05 255.277 235.058 254.188 234.29C253.596 233.872 253.869 232.86 253.869 232.86Z" fill="#422F2A"></path><path d="M145.046 158.425C122.342 158.425 103.936 176.831 103.936 199.535C103.936 222.239 122.342 240.645 145.046 240.645C167.75 240.645 186.156 222.239 186.156 199.535C186.156 176.831 167.75 158.425 145.046 158.425ZM145.046 226.657C130.067 226.657 117.924 214.514 117.924 199.535C117.924 184.557 130.067 172.413 145.046 172.413C160.025 172.413 172.168 184.556 172.168 199.535C172.167 214.514 160.025 226.657 145.046 226.657Z" fill="#422F2A"></path><path d="M146.756 161.374H143.334V237.696H146.756V161.374Z" fill="#422F2A"></path><path d="M183.207 201.246V197.824H106.884V201.246H183.207Z" fill="#422F2A"></path><path d="M173.235 173.758L170.816 171.338L116.848 225.306L119.267 227.726L173.235 173.758Z" fill="#422F2A"></path><path d="M170.821 227.729L173.241 225.31L119.273 171.342L116.853 173.761L170.821 227.729Z" fill="#422F2A"></path><path d="M180.925 186.464L179.611 183.304L109.134 212.604L110.448 215.764L180.925 186.464Z" fill="#422F2A"></path><path d="M158.117 235.413L161.277 234.099L131.977 163.623L128.817 164.936L158.117 235.413Z" fill="#422F2A"></path><path d="M179.607 215.767L180.921 212.607L110.444 183.298L109.13 186.458L179.607 215.767Z" fill="#422F2A"></path><path d="M161.292 164.956L158.132 163.643L128.832 234.119L131.992 235.433L161.292 164.956Z" fill="#422F2A"></path><path d="M151.99 206.482C155.827 202.645 155.827 196.424 151.99 192.588C148.154 188.751 141.933 188.751 138.096 192.588C134.26 196.424 134.26 202.645 138.096 206.482C141.933 210.318 148.154 210.318 151.99 206.482Z" fill="#422F2A"></path><path d="M145.046 204.376C147.719 204.376 149.886 202.209 149.886 199.535C149.886 196.862 147.719 194.695 145.046 194.695C142.372 194.695 140.205 196.862 140.205 199.535C140.205 202.209 142.372 204.376 145.046 204.376Z" fill="#422F2A"></path><path d="M145.045 165.642C126.327 165.642 111.152 180.816 111.152 199.535C111.152 218.253 126.326 233.428 145.045 233.428C163.764 233.428 178.938 218.254 178.938 199.535C178.937 180.817 163.763 165.642 145.045 165.642ZM145.045 226.657C130.066 226.657 117.923 214.514 117.923 199.535C117.923 184.556 130.066 172.413 145.045 172.413C160.024 172.413 172.167 184.556 172.167 199.535C172.167 214.514 160.024 226.657 145.045 226.657Z" fill="#422F2A"></path><path d="M182.136 121.548L27.8977 158.822L41.4319 214.826L195.67 177.551L182.136 121.548Z" fill="#624036"></path><path d="M191.322 159.564L37.0845 196.838L38.66 203.357L192.898 166.083L191.322 159.564Z" fill="#7D5B54"></path><path d="M165.58 67.9931C164.659 70.3469 163.358 72.0377 162.673 71.769C161.987 71.5011 162.178 69.3755 163.098 67.0225C164.018 64.6687 165.319 62.9779 166.005 63.2466C166.691 63.5145 166.5 65.6401 165.58 67.9931Z" fill="#FFC725"></path><path d="M120.385 76.0815C119.464 78.4352 118.163 80.1261 117.477 79.8574C116.792 79.5894 116.982 77.4639 117.902 75.1108C118.822 72.7571 120.124 71.0663 120.81 71.3349C121.496 71.6029 121.305 73.7278 120.385 76.0815Z" fill="#FFC725"></path><path d="M115.318 79.1434C116.608 81.3164 117.14 83.3827 116.508 83.7581C115.875 84.1335 114.316 82.6772 113.026 80.5042C111.736 78.3312 111.203 76.2649 111.836 75.8895C112.468 75.5141 114.027 76.9711 115.318 79.1434Z" fill="#FFC725"></path><path d="M198.644 82.258C196.734 79.5246 189.72 79.2406 189.72 79.2406C180.006 67.4726 172.773 75.0495 172.773 75.0495C163.959 69.5863 164.676 78.764 164.676 78.764C157.515 68.8006 144.923 80.7744 144.923 80.7744C130.396 70.139 114.275 86.9892 114.275 86.9892C112.76 77.1911 102.883 82.2824 102.883 82.2824C98.3672 73.0084 87.9328 80.8798 87.9328 80.8798C67.5879 60.5063 56.2141 77.2553 56.2141 77.2553C51.3936 73.4913 47.5466 76.4759 45.056 79.9343C45.056 79.9343 18.0491 76.545 22.6121 93.2919C22.6121 93.2919 7.59298 97.506 16.5285 104.913C16.5285 104.913 -8.7562 115.27 3.22045 128.053C6.47159 131.523 9.72063 133.945 12.7547 135.581C3.82267 136.843 -4.17432 140.324 3.79057 147.279C9.27891 152.072 14.6863 154.118 19.1216 154.647C14.4916 158.879 11.1847 164.359 16.5278 164.515C26.0335 164.792 27.8932 158.829 27.8932 158.829L54.4529 152.411C54.4529 152.411 54.6769 159.151 56.3244 158.898C57.54 158.711 58.6844 155.079 58.7954 153.388C60.1666 154.775 64.5049 157.111 66.0834 154.842C67.3541 153.016 65.3416 151.638 64.0032 151.018C66.3869 151.48 72.1035 151.55 74.1948 149.899C76.603 147.998 75.6044 147.3 75.6044 147.3L136.93 132.481C136.93 132.481 134.144 137.097 137.819 136.21C141.494 135.324 140.481 132.535 140.481 132.535C140.481 132.535 143.269 137.097 144.536 134.943C145.803 132.788 143.254 130.953 143.254 130.953L160.883 126.694L180.155 122.037C180.155 122.037 206.604 116.312 194.074 101.484C193.681 101.017 193.298 100.585 192.926 100.184C199.328 96.4509 203.484 89.1838 198.644 82.258Z" fill="#FFC725"></path><path d="M54.4547 152.41C54.4547 152.41 27.5782 108.195 45.0572 79.9343" stroke="#655F51" stroke-width="0.5" stroke-miterlimit="10"></path><path d="M102.883 82.2817C102.883 82.2817 73.9429 111.749 80.0264 146.35" stroke="#655F51" stroke-width="0.5" stroke-miterlimit="10"></path><path d="M144.923 80.7737C144.923 80.7737 143.645 113.909 160.885 126.693" stroke="#655F51" stroke-width="0.5" stroke-miterlimit="10"></path><path d="M370.95 147.989C366.822 142.944 363.638 124.839 363.591 123.389C363.52 121.178 360.402 118.866 358.108 117.119C355.815 115.373 350.311 113.362 347.56 113.362C344.808 113.362 343.891 116.114 332.196 119.553C320.501 122.993 318.896 118.636 318.896 118.636C319.125 107.4 312.933 101.208 306.513 98.6866C300.092 96.164 295.965 102.126 292.525 108.088C289.086 114.05 286.792 114.05 264.549 116.114C242.306 118.178 212.037 113.362 209.284 113.362C206.533 113.362 200.112 117.49 191.628 120.701C183.143 123.911 183.143 137.211 185.895 152.937C188.646 168.662 203.093 170.003 223.731 174.819C244.369 179.634 257.44 179.634 269.136 178.717C269.483 178.689 269.841 178.662 270.207 178.636C270.209 178.636 279.112 182.615 294.245 188.462C309.38 194.31 320.444 178.487 325.26 174.703C330.075 170.92 330.247 167.824 331.107 161.977C331.626 158.453 333.432 157.083 334.788 156.547C334.92 156.529 335.058 156.463 335.178 156.506C343.406 159.411 340.91 153.721 343.891 152.936C346.873 152.151 353.293 153.492 354.669 152.936C356.045 152.381 362.008 156.931 366.594 156.473C371.18 156.014 375.078 153.033 370.95 147.989Z" fill="#EBE5D8"></path><path d="M356.324 119.259C356.725 118.92 356.684 118.295 356.248 118.003C354.297 116.695 350.15 113.056 353.218 107.228C357.139 99.7792 363.488 100.128 362.761 99.7227C362.033 99.3173 352.447 97.1094 348.332 105.279C345.185 111.528 348.763 117.346 350.44 118.897C351.96 119.952 353.723 120.958 355.83 119.675L356.324 119.259Z" fill="#655F51"></path><path d="M295.478 212.568C296.482 212.425 297.915 212.081 299.634 211.279C303.074 209.674 312.705 204.629 310.412 201.189C308.119 197.75 293.864 182.914 289.316 180.322C284.767 177.729 284.298 170.92 284.298 170.92L311.788 169.315C311.788 169.315 307.661 178.946 311.788 185.596C315.916 192.247 320.732 203.024 318.667 204.859C316.604 206.693 306.055 214.949 303.762 217.242C301.469 219.535 296.883 218.847 296.883 218.847" fill="#EBE5D8"></path><path d="M240.242 165.416C240.242 165.416 227.63 162.234 223.502 179.189C219.374 196.144 220.75 208.298 226.025 213.342C231.299 218.387 240.242 231.229 240.242 231.229C240.242 231.229 245.286 233.98 245.975 236.961C245.975 236.961 239.095 238.337 235.426 236.961C235.426 236.961 209.056 201.647 208.597 200.271C208.138 198.895 211.119 179.174 205.386 175.506C199.653 171.837 188.342 165.859 186.592 155.859C184.843 145.858 240.242 165.416 240.242 165.416Z" fill="#EBE5D8"></path><path d="M170.531 189.035C170.531 189.035 173.512 186.513 177.181 177.799C180.85 169.085 174.43 148.218 175.576 142.026C176.723 135.834 188.189 127.121 188.189 127.121V131.931C188.189 131.931 178.647 138.754 178.303 143.57C177.959 148.386 187.787 176.022 170.531 189.035Z" fill="#EBE5D8"></path><path d="M359.312 143.467C359.312 143.467 344.356 132.672 334.163 118.949" stroke="#BF9779" stroke-width="2" stroke-miterlimit="10" stroke-linecap="round"></path><path d="M371.049 154.936C371.049 154.936 369.618 154.871 369.334 154.061C369.092 153.375 369.602 147.876 370.528 149.158C372.497 151.881 372.62 151.165 372.62 151.165C373.072 153.866 371.049 154.936 371.049 154.936Z" fill="#4F4D48"></path><path d="M297.341 174.818C297.341 174.818 297.112 198.666 297.341 202.564C297.571 206.462 296.883 224.12 299.405 227.101C301.927 230.082 303.991 230.541 305.825 235.815C305.825 235.815 300.806 236.044 297.239 235.815C297.239 235.815 293.213 232.375 292.984 229.165C292.754 225.954 292.984 216.094 291.379 211.508C289.774 206.922 288.627 204.169 288.168 202.794C287.709 201.418 284.296 172.754 284.296 172.754L297.341 174.818Z" fill="#EBE5D8"></path><path d="M207.221 161.288C207.221 161.288 201.003 198.666 201.232 202.565C201.462 206.463 200.774 224.121 203.296 227.102C205.818 230.083 207.882 230.541 209.716 235.815C209.716 235.815 204.697 236.045 201.13 235.815C201.13 235.815 197.104 232.376 196.874 229.165C196.645 225.955 196.874 216.094 195.269 211.508C193.664 206.922 192.518 204.17 192.059 202.795C191.6 201.419 185.088 147.795 185.088 147.795L207.221 161.288Z" fill="#EBE5D8"></path><path d="M341.491 132.854C341.491 132.854 340.467 139.39 341.491 141.109C342.516 142.829 355.628 153.012 355.628 153.012" stroke="#655F51" stroke-width="0.5" stroke-miterlimit="10"></path><path d="M175.229 183.011C175.229 183.011 177.613 188.422 172.978 195.854C168.343 203.287 167.906 207.571 167.906 207.571L168.431 198.04C168.431 198.04 167.294 201.888 166.769 203.549C166.769 203.549 164.146 196.379 168.256 189.821C172.366 183.263 175.229 183.011 175.229 183.011Z" fill="#655F51"></path><path d="M347.073 124.165C347.073 124.165 333.366 137.01 335.162 137.42C336.959 137.829 343.54 133.907 344.357 132.672C345.174 131.436 347.073 124.165 347.073 124.165Z" fill="#D49985"></path><path d="M335.062 136.783C335.39 134.228 346.613 116.892 346.613 116.892L346.738 124.48L335.062 136.783Z" fill="#EBE5D8"></path><path d="M346.613 116.892C346.613 116.892 335.39 134.228 335.062 136.783" stroke="#655F51" stroke-width="0.5" stroke-miterlimit="10" stroke-linecap="round" stroke-linejoin="round"></path><path d="M224.817 175.066C224.817 175.066 215.513 172.727 203.815 169.314" stroke="#655F51" stroke-width="0.5" stroke-miterlimit="10" stroke-linecap="round" stroke-linejoin="round"></path><path d="M311.787 185.596C311.787 185.596 312.247 180.026 311.099 174.818C309.951 169.61 313.661 161.9 313.661 156.197" stroke="#655F51" stroke-width="0.5" stroke-miterlimit="10" stroke-linecap="round" stroke-linejoin="round"></path><path d="M286.83 185.872C292.451 188.101 297.85 189.928 299.993 189.718C299.993 189.718 292.357 182.295 290.836 181.308C289.316 180.322 285.439 178.751 284.298 172.754" stroke="#655F51" stroke-width="0.5" stroke-miterlimit="10" stroke-linecap="round" stroke-linejoin="round"></path><path d="M300.766 228.549C298.142 231.28 293.234 230.375 293.234 230.375C294.16 233.183 297.24 235.815 297.24 235.815C300.807 236.044 305.826 235.815 305.826 235.815C304.332 231.522 302.687 230.419 300.766 228.549Z" fill="#655F51"></path><path d="M240.243 231.229C235.407 232.574 231.591 231.814 231.591 231.814C233.906 234.924 235.427 236.961 235.427 236.961C239.096 238.337 245.975 236.961 245.975 236.961C245.287 233.981 240.243 231.229 240.243 231.229Z" fill="#655F51"></path><path d="M204.244 228.137C199.903 229.811 196.838 228.145 196.824 228.138C196.839 228.523 196.855 228.878 196.876 229.165C197.106 232.376 201.131 235.815 201.131 235.815C204.699 236.045 209.718 235.815 209.718 235.815C208.117 231.217 206.343 230.278 204.244 228.137Z" fill="#655F51"></path><path d="M297.442 212.122C295.257 212.786 293.901 212.654 293.901 212.654C287.251 223.202 286.945 224.39 286.945 224.39C292.455 224.587 296.386 220.421 296.785 219.18L296.882 218.846C296.882 218.846 295.774 214.476 297.442 212.122Z" fill="#655F51"></path><path d="M369.095 144.788C369.095 144.788 363.663 141.632 359.313 143.467C357.837 144.09 354.982 148.633 355.629 153.012" stroke="#BF9779" stroke-width="2" stroke-miterlimit="10" stroke-linecap="round"></path><path d="M135.22 161.821C112.516 161.821 94.1104 180.227 94.1104 202.931C94.1104 225.635 112.516 244.041 135.22 244.041C157.924 244.041 176.33 225.635 176.33 202.931C176.33 180.227 157.924 161.821 135.22 161.821ZM135.22 230.052C120.242 230.052 108.098 217.91 108.098 202.93C108.098 187.951 120.241 175.809 135.22 175.809C150.199 175.809 162.342 187.952 162.342 202.93C162.342 217.909 150.2 230.052 135.22 230.052Z" fill="#7D5B54"></path><path d="M136.931 164.769H133.509V241.092H136.931V164.769Z" fill="#7D5B54"></path><path d="M173.382 204.642V201.219H97.0594V204.642H173.382Z" fill="#7D5B54"></path><path d="M163.414 177.154L160.995 174.734L107.027 228.702L109.446 231.122L163.414 177.154Z" fill="#7D5B54"></path><path d="M160.997 231.125L163.417 228.705L109.448 174.737L107.029 177.157L160.997 231.125Z" fill="#7D5B54"></path><path d="M171.099 189.857L169.785 186.697L99.3084 215.997L100.622 219.157L171.099 189.857Z" fill="#7D5B54"></path><path d="M148.294 238.84L151.453 237.526L122.145 167.056L118.985 168.37L148.294 238.84Z" fill="#7D5B54"></path><path d="M169.803 219.147L171.117 215.987L100.648 186.679L99.3339 189.839L169.803 219.147Z" fill="#7D5B54"></path><path d="M151.451 168.368L148.291 167.054L118.983 237.531L122.143 238.845L151.451 168.368Z" fill="#7D5B54"></path><path d="M144.779 205.222C146.045 199.946 142.795 194.642 137.518 193.376C132.242 192.109 126.938 195.36 125.672 200.636C124.406 205.912 127.656 211.216 132.932 212.482C138.209 213.749 143.512 210.498 144.779 205.222Z" fill="#422F2A"></path><path d="M135.221 207.772C132.547 207.772 130.38 205.604 130.38 202.931C130.38 200.257 132.547 198.09 135.221 198.09C137.894 198.09 140.061 200.257 140.061 202.931C140.061 205.604 137.894 207.772 135.221 207.772Z" fill="#7D5B54"></path><path d="M135.22 169.038C116.502 169.038 101.327 184.212 101.327 202.93C101.327 221.648 116.501 236.822 135.22 236.822C153.938 236.822 169.112 221.648 169.112 202.93C169.112 184.212 153.938 169.038 135.22 169.038ZM135.22 230.052C120.241 230.052 108.098 217.91 108.098 202.93C108.098 187.951 120.241 175.809 135.22 175.809C150.199 175.809 162.341 187.951 162.341 202.93C162.341 217.909 150.199 230.052 135.22 230.052Z" fill="#422F2A"></path></svg>